<svg width="95" height="33" viewBox="0 0 95 33" fill="none" xmlns="http://www.w3.org/2000/svg">
<path d="M2.672 30.176C2.448 30.208 2.192 30.128 1.904 29.936C1.648 29.712 1.408 29.52 1.184 29.36C0.864 28.976 0.64 28.64 0.512 28.352C0.384 28.064 0.32 27.744 0.32 27.392C0.32 27.04 0.352 26.624 0.416 26.144C0.576 25.632 0.768 24.944 0.992 24.08C1.216 23.216 1.488 22.288 1.808 21.296C1.872 20.912 1.984 20.464 2.144 19.952C2.336 19.408 2.528 18.896 2.72 18.416C2.912 17.904 3.056 17.52 3.152 17.264C3.376 16.464 3.6 15.696 3.824 14.96C4.08 14.224 4.384 13.376 4.736 12.416C5.088 11.456 5.52 10.24 6.032 8.768C6.736 6.848 7.264 5.408 7.616 4.448C7.968 3.488 8.224 2.8 8.384 2.384C8.544 1.968 8.656 1.632 8.72 1.376C8.72 1.12 8.896 0.879998 9.248 0.655997C9.632 0.399999 9.968 0.271999 10.256 0.271999C10.704 0.303999 11.136 0.575998 11.552 1.088C11.968 1.568 12.256 2.16 12.416 2.864C12.576 3.536 12.464 4.192 12.08 4.832C11.568 5.984 11.056 7.28 10.544 8.72C10.064 10.128 9.584 11.536 9.104 12.944C8.624 14.352 8.144 15.648 7.664 16.832C7.632 16.992 7.52 17.264 7.328 17.648C7.168 18.032 7.024 18.352 6.896 18.608C6.768 18.864 6.64 19.104 6.512 19.328C6.416 19.552 6.368 19.664 6.368 19.664C6.336 19.856 6.272 20.128 6.176 20.48C6.08 20.832 5.984 21.136 5.888 21.392C5.856 21.552 5.808 21.76 5.744 22.016C5.68 22.272 5.632 22.528 5.6 22.784C5.76 22.592 5.984 22.368 6.272 22.112C6.56 21.824 6.928 21.472 7.376 21.056C7.888 20.608 8.336 20.224 8.72 19.904C9.104 19.584 9.488 19.296 9.872 19.04C10.224 18.784 10.544 18.544 10.832 18.32C11.152 18.096 11.312 17.984 11.312 17.984C11.376 17.888 11.44 17.776 11.504 17.648C11.6 17.52 11.696 17.44 11.792 17.408C11.856 17.344 11.968 17.264 12.128 17.168C12.288 17.04 12.448 16.912 12.608 16.784C12.896 16.592 13.2 16.432 13.52 16.304C13.84 16.176 14.176 16.08 14.528 16.016C14.88 15.952 15.216 15.92 15.536 15.92C15.92 15.92 16.32 16.08 16.736 16.4C17.152 16.688 17.536 17.104 17.888 17.648C18.208 18.064 18.4 18.56 18.464 19.136C18.56 19.68 18.576 20.416 18.512 21.344C18.512 21.6 18.432 22.08 18.272 22.784C18.144 23.488 18.048 24.016 17.984 24.368L17.552 26H17.936C18.288 25.872 18.624 25.856 18.944 25.952C19.296 26.048 19.472 26.096 19.472 26.096C19.632 26.192 19.776 26.304 19.904 26.432C20.064 26.56 20.208 26.656 20.336 26.72C20.528 26.976 20.496 27.344 20.24 27.824C19.984 28.304 19.696 28.64 19.376 28.832C18.608 29.344 17.92 29.664 17.312 29.792C16.736 29.92 16.128 29.808 15.488 29.456C14.88 29.04 14.464 28.544 14.24 27.968C14.048 27.392 13.968 26.608 14 25.616C14.128 24.208 14.208 23.2 14.24 22.592C14.272 21.952 14.112 21.632 13.76 21.632C13.376 21.632 12.848 21.824 12.176 22.208C11.536 22.56 10.816 23.056 10.016 23.696C9.216 24.304 8.416 24.992 7.616 25.76C6.848 26.496 6.16 27.248 5.552 28.016C5.168 28.496 4.752 28.976 4.304 29.456C3.856 29.904 3.312 30.144 2.672 30.176ZM24.6395 30.992C24.5115 30.736 24.2235 30.48 23.7755 30.224C23.3595 29.968 23.1515 29.776 23.1515 29.648C23.1515 29.52 23.0715 29.328 22.9115 29.072C22.7835 28.784 22.6555 28.576 22.5275 28.448C22.3675 28.256 22.4155 27.792 22.6715 27.056C22.9275 26.288 23.3115 25.36 23.8235 24.272C24.3355 23.184 24.8955 22.08 25.5035 20.96C25.7595 20.704 26.0155 20.368 26.2715 19.952C26.5275 19.536 26.7195 19.264 26.8475 19.136C26.8475 19.008 26.8955 18.896 26.9915 18.8C27.0875 18.672 27.1995 18.608 27.3275 18.608L27.7115 17.84C27.7755 17.712 27.9675 17.456 28.2875 17.072C28.6395 16.688 29.0555 16.272 29.5355 15.824C30.0155 15.344 30.4955 14.896 30.9755 14.48C31.4875 14.064 31.9035 13.76 32.2235 13.568C32.8955 13.12 33.5835 12.912 34.2875 12.944C35.0235 12.976 35.6475 13.2 36.1595 13.616C36.2555 13.712 36.4635 13.904 36.7835 14.192C37.1355 14.48 37.5195 14.8 37.9355 15.152C38.3835 15.504 38.7675 15.824 39.0875 16.112L40.8635 17.696L40.0475 20.096C39.6315 21.376 39.5195 22.496 39.7115 23.456C39.9035 24.416 40.2075 25.248 40.6235 25.952C40.7835 26.304 40.9915 26.576 41.2475 26.768C41.5355 26.96 41.9035 27.088 42.3515 27.152C42.6075 27.184 42.8475 27.28 43.0715 27.44C43.2955 27.6 43.4075 27.856 43.4075 28.208C43.4075 28.976 43.2635 29.536 42.9755 29.888C42.7195 30.208 42.4315 30.4 42.1115 30.464C41.0555 30.592 40.0475 30.48 39.0875 30.128C38.1275 29.776 37.2635 28.864 36.4955 27.392C36.3675 27.2 36.1915 26.848 35.9675 26.336C35.7755 25.792 35.6635 25.44 35.6315 25.28C35.5035 25.44 35.3275 25.648 35.1035 25.904C34.9115 26.128 34.7195 26.336 34.5275 26.528C32.2555 28.832 30.3035 30.336 28.6715 31.04C27.0715 31.712 25.7275 31.696 24.6395 30.992ZM27.2795 27.008C27.5035 27.04 27.8555 26.928 28.3355 26.672C28.8155 26.384 29.4555 25.92 30.2555 25.28C31.3435 24.352 32.2395 23.584 32.9435 22.976C33.6475 22.368 34.3355 21.584 35.0075 20.624L36.0635 18.896C35.7435 18.16 35.4555 17.68 35.1995 17.456C34.9435 17.232 34.6875 17.12 34.4315 17.12C34.0155 17.12 33.5195 17.392 32.9435 17.936C32.3675 18.448 31.7115 19.216 30.9755 20.24C30.2715 21.232 29.4715 22.48 28.5755 23.984C28.1595 24.688 27.8395 25.376 27.6155 26.048C27.3915 26.688 27.2795 27.008 27.2795 27.008ZM60.2214 31.808C59.7414 31.808 59.2774 31.664 58.8294 31.376C58.3814 31.056 58.0134 30.624 57.7254 30.08C57.4374 29.504 57.2934 28.832 57.2934 28.064C57.2934 27.584 57.3734 26.912 57.5334 26.048C57.7254 25.152 57.9974 24.032 58.3494 22.688C58.4134 22.24 58.4614 21.952 58.4934 21.824C58.5574 21.696 58.5894 21.568 58.5894 21.44C58.5894 21.376 58.5734 21.328 58.5414 21.296C58.5414 21.232 58.5094 21.2 58.4454 21.2C58.1894 21.2 57.8374 21.376 57.3894 21.728C56.9734 22.048 56.4934 22.432 55.9494 22.88C55.8534 22.944 55.7414 23.024 55.6134 23.12C55.5174 23.216 55.4054 23.312 55.2774 23.408C55.1814 23.504 55.0694 23.6 54.9414 23.696C54.6214 23.888 54.1254 24.256 53.4534 24.8C52.8134 25.344 52.1414 25.92 51.4374 26.528C50.7654 27.136 50.1734 27.648 49.6614 28.064C49.4054 28.256 49.1814 28.416 48.9894 28.544C48.8294 28.672 48.7174 28.736 48.6534 28.736C48.5894 28.736 48.3334 28.656 47.8854 28.496C47.4694 28.304 47.0534 28.048 46.6374 27.728C46.2534 27.376 46.0614 26.976 46.0614 26.528C46.0614 26.24 46.1734 25.664 46.3974 24.8C46.6534 23.936 47.0054 22.912 47.4534 21.728C47.9014 20.544 48.4134 19.344 48.9894 18.128C49.1174 17.84 49.2134 17.456 49.2774 16.976C49.3414 16.496 49.4054 16.032 49.4694 15.584C49.5654 15.104 49.7254 14.752 49.9494 14.528C50.0454 14.368 50.1574 14.256 50.2854 14.192C50.4454 14.096 50.6054 14.048 50.7654 14.048C51.0854 14.048 51.3894 14.128 51.6774 14.288C51.9654 14.416 52.2374 14.64 52.4934 14.96C52.9734 15.472 53.2294 16.08 53.2614 16.784C53.3254 17.456 53.2774 18.112 53.1174 18.752C52.9574 19.392 52.7814 19.92 52.5894 20.336C52.3974 20.72 52.3014 20.88 52.3014 20.816C52.4294 20.752 52.6054 20.592 52.8294 20.336C53.0854 20.08 53.5174 19.776 54.1254 19.424C54.9574 18.784 55.5974 18.336 56.0454 18.08C56.4934 17.792 56.8294 17.584 57.0534 17.456C57.3094 17.328 57.5334 17.184 57.7254 17.024C57.8854 16.896 57.9974 16.816 58.0614 16.784C58.1574 16.752 58.2054 16.736 58.2054 16.736C58.3014 16.736 58.4614 16.672 58.6854 16.544C58.9414 16.416 59.1814 16.352 59.4054 16.352C59.7254 16.352 60.0614 16.432 60.4134 16.592C60.7654 16.72 61.0694 16.912 61.3254 17.168C61.5814 17.392 61.7094 17.632 61.7094 17.888C61.7094 17.984 61.7414 18.064 61.8054 18.128C61.8694 18.192 61.9334 18.272 61.9974 18.368C62.1574 18.56 62.3334 18.832 62.5254 19.184C62.7494 19.504 62.8614 20.032 62.8614 20.768C62.8614 21.28 62.7494 22.032 62.5254 23.024C62.3014 24.016 62.0614 24.992 61.8054 25.952C61.5494 26.944 61.4214 27.744 61.4214 28.352C61.4534 28.928 61.5174 29.376 61.6134 29.696C61.7094 29.984 61.7574 30.224 61.7574 30.416C61.7574 30.672 61.6294 30.976 61.3734 31.328C61.1174 31.648 60.7334 31.808 60.2214 31.808Z" fill="#6B7280"/>
<path d="M72.7486 32.192C71.8206 32.352 70.8926 32.272 69.9646 31.952C69.0686 31.632 68.3166 31.12 67.7086 30.416C67.1326 29.68 66.8446 28.8 66.8446 27.776C66.7486 26.816 66.8286 25.68 67.0846 24.368C67.3726 23.024 67.7886 21.68 68.3326 20.336C68.9086 18.992 69.5646 17.856 70.3006 16.928C70.9406 16.16 71.5806 15.456 72.2206 14.816C72.8606 14.176 73.4366 13.744 73.9486 13.52C74.3966 13.328 74.9406 13.184 75.5806 13.088C76.2526 12.96 76.7166 12.896 76.9726 12.896C77.4846 13.024 78.0446 13.232 78.6526 13.52C79.2926 13.808 79.6126 14.144 79.6126 14.528C79.6126 14.528 79.6446 14.576 79.7086 14.672C79.8046 14.736 79.8526 14.768 79.8526 14.768C80.0446 14.768 80.2526 15.008 80.4766 15.488C80.7326 15.936 80.9246 16.464 81.0526 17.072C81.1806 17.648 81.1486 18.112 80.9566 18.464C80.8286 19.072 80.5726 19.664 80.1886 20.24C79.8366 20.816 79.5326 21.104 79.2766 21.104C79.1486 21.104 79.0206 21.12 78.8926 21.152C78.7966 21.152 78.7486 21.232 78.7486 21.392C78.7486 21.552 78.5726 21.632 78.2206 21.632C77.9006 21.632 77.5646 21.568 77.2126 21.44C76.8606 21.312 76.6366 21.12 76.5406 20.864C76.5406 20.704 76.5726 20.496 76.6366 20.24C76.7006 19.984 76.7966 19.552 76.9246 18.944C77.1166 18.048 77.1326 17.456 76.9726 17.168C76.8126 16.848 76.4126 16.816 75.7726 17.072C74.9726 17.52 74.3166 18.048 73.8046 18.656C73.2926 19.232 72.8286 20.048 72.4126 21.104C72.0286 22.16 71.5966 23.632 71.1166 25.52C70.9246 26.256 70.8926 26.832 71.0206 27.248C71.1806 27.664 71.3086 27.888 71.4046 27.92C71.8526 28.048 72.3326 28.08 72.8446 28.016C73.3886 27.92 73.8366 27.776 74.1886 27.584C74.7006 27.328 75.1486 27.056 75.5326 26.768C75.9486 26.448 76.3966 26.112 76.8766 25.76C77.0366 25.664 77.1806 25.488 77.3086 25.232C77.4366 24.944 77.6286 24.736 77.8846 24.608C78.1406 24.224 78.4606 24.032 78.8446 24.032C79.2606 24 79.6606 23.984 80.0446 23.984C80.3006 24.048 80.5726 24.208 80.8606 24.464C81.1486 24.72 81.3566 24.976 81.4846 25.232C81.6446 25.456 81.6286 25.616 81.4366 25.712C81.3086 25.712 81.2286 25.76 81.1966 25.856C81.1966 25.92 81.1966 25.952 81.1966 25.952C81.2606 26.08 81.1166 26.368 80.7646 26.816C80.4446 27.264 80.0286 27.744 79.5166 28.256C79.0046 28.768 78.5086 29.216 78.0286 29.6C77.5806 29.952 77.2606 30.128 77.0686 30.128C76.7486 30.128 76.5886 30.224 76.5886 30.416C76.5886 30.48 76.3486 30.64 75.8686 30.896C75.4206 31.152 74.8926 31.408 74.2846 31.664C73.7086 31.92 73.1966 32.096 72.7486 32.192ZM84.569 31.184C84.313 30.928 84.121 30.544 83.993 30.032C83.897 29.52 83.865 29.024 83.897 28.544C83.929 28.032 84.009 27.648 84.137 27.392C84.137 27.136 84.169 26.944 84.233 26.816C84.329 26.656 84.361 26.512 84.329 26.384C84.297 26.256 84.329 26.032 84.425 25.712C84.521 25.392 84.617 25.088 84.713 24.8C84.937 24.288 85.193 23.632 85.481 22.832C85.769 22 86.057 21.168 86.345 20.336C86.633 19.472 86.873 18.736 87.065 18.128C87.257 17.488 87.369 17.104 87.401 16.976C87.401 16.592 87.657 16.384 88.169 16.352C88.553 16.224 89.017 16.384 89.561 16.832C90.105 17.28 90.537 17.76 90.857 18.272C91.113 18.528 91.209 18.864 91.145 19.28C91.081 19.696 90.873 20.288 90.521 21.056C90.393 21.312 90.233 21.744 90.041 22.352C89.881 22.928 89.769 23.408 89.705 23.792C89.577 24.048 89.417 24.416 89.225 24.896C89.065 25.344 88.921 25.776 88.793 26.192C88.729 26.352 88.665 26.656 88.601 27.104C88.537 27.52 88.457 27.952 88.361 28.4C88.265 28.848 88.137 29.2 87.977 29.456C87.689 30.768 87.177 31.536 86.441 31.76C85.737 31.984 85.113 31.792 84.569 31.184ZM89.753 11.936C89.401 11.68 89.129 11.376 88.937 11.024C88.777 10.64 88.681 10.304 88.649 10.016C88.649 9.728 88.681 9.552 88.745 9.488C89.065 9.136 89.337 8.672 89.561 8.096C89.817 7.52 90.089 6.992 90.377 6.512C90.441 6.416 90.521 6.288 90.617 6.128C90.745 5.936 90.873 5.824 91.001 5.792C91.385 5.536 91.913 5.552 92.585 5.84C93.289 6.128 93.801 6.528 94.121 7.04C94.409 7.648 94.489 8.272 94.361 8.912C94.265 9.552 93.929 10.224 93.353 10.928C92.873 11.568 92.265 11.984 91.529 12.176C90.793 12.336 90.201 12.256 89.753 11.936Z" fill="#FDBA74"/>
</svg>
